<?xml version="1.0" standalone="no"?>
<!DOCTYPE svg PUBLIC "-//W3C//DTD SVG 20010904//EN"
 "http://www.w3.org/TR/2001/REC-SVG-20010904/DTD/svg10.dtd">
<svg version="1.0" xmlns="http://www.w3.org/2000/svg"
 width="114.000000pt" height="114.000000pt" viewBox="0 0 114.000000 114.000000"
 preserveAspectRatio="xMidYMid meet">
<metadata>
Created by potrace 1.11, written by Peter Selinger 2001-2013
</metadata>
<g transform="translate(0.000000,114.000000) scale(0.100000,-0.100000)"
fill="#000000" stroke="none">
<path d="M502 978 c-7 -7 -45 -12 -89 -13 -43 -1 -90 -6 -104 -12 -31 -13 -59
-49 -59 -75 0 -10 -4 -18 -9 -18 -10 0 -25 -36 -24 -60 0 -31 42 -107 72 -132
55 -47 34 -57 -57 -27 -39 13 -50 22 -69 56 -14 25 -9 49 13 57 8 3 14 14 14
25 0 14 -5 18 -20 14 -15 -4 -20 0 -20 14 0 11 -9 28 -20 38 -19 17 -20 17
-29 -9 -6 -14 -15 -26 -20 -26 -21 0 -21 -51 2 -97 29 -59 76 -136 90 -145 6
-3 12 -17 14 -29 2 -13 5 -24 6 -25 4 -4 69 -16 97 -18 24 -1 25 -4 22 -51 -1
-27 -9 -62 -17 -79 -14 -27 -14 -30 5 -43 15 -11 20 -26 20 -61 0 -54 7 -66
35 -69 50 -3 185 -58 185 -74 0 -16 28 -9 69 18 23 15 47 28 54 30 6 1 41 11
76 21 l65 19 -1 49 c-2 40 2 52 20 66 19 15 20 20 9 38 -18 29 -28 135 -13
144 6 4 11 4 11 -1 0 -4 11 -8 25 -8 14 0 25 4 25 8 0 5 4 5 10 2 11 -7 50 12
49 23 -3 19 3 32 32 68 38 48 89 147 89 173 0 11 -10 29 -22 41 -12 11 -18 20
-14 20 5 0 3 7 -4 15 -16 19 -27 12 -45 -32 -12 -29 -18 -33 -29 -24 -26 22
-26 -6 0 -33 18 -17 24 -31 20 -43 -4 -10 -8 -20 -9 -23 -4 -18 -40 -40 -86
-54 -30 -9 -58 -16 -63 -16 -19 0 -5 27 26 50 19 14 32 28 29 33 -2 4 0 7 6 7
13 0 25 37 26 84 2 72 -64 140 -137 139 -77 -1 -131 -11 -147 -28 -16 -16 -24
-135 -8 -135 4 0 7 -8 7 -18 0 -10 7 -27 15 -38 20 -26 19 -31 -15 -64 -17
-17 -35 -40 -39 -52 -9 -22 -9 -22 -16 -3 -4 11 -23 34 -42 50 l-35 30 20 40
c30 57 33 89 13 128 -13 25 -15 41 -8 58 8 21 18 89 13 89 -1 0 -7 -5 -14 -12z"/>
<path d="M901 897 c-10 -16 -10 -21 1 -28 7 -5 18 -9 24 -9 14 0 60 50 48 52
-42 7 -62 3 -73 -15z"/>
</g>
</svg>
